<svg xmlns="http://www.w3.org/2000/svg" xmlns:xlink="http://www.w3.org/1999/xlink" width="512.5" height="123.6" viewBox="0 0 512.5 123.6"><defs><clipPath id="a"><rect width="512.5" height="123.6" transform="translate(164.7 235.9)"/></clipPath></defs><g transform="translate(-164.7 -235.9)"><path d="M370.3,235.9V359.4H402V309.1h36.1V283.9H402V261.1h54.3V235.9Z" fill="#fff"/><path d="M326.3,235.9l-26.8,79.7L273,235.9H250.7L223,314.2l-25.6-78.3H164.7l44,123.5h25.7l26.5-74.1L287,359.4h25.6l44.2-123.5Z" fill="#fff"/><path d="M548.5,332.9l-12.4,26.6h32.4l11.4-26.6Zm45.3-97-38.5,82.4h30.9l20.7-48.2,38.4,89.4h31.9L619.4,235.9H593.8Z" fill="#fff"/><path d="M471.6,235.9V359.4h31.7V309.1h36.1V283.9H503.3V261.1h54.3V235.9Z" fill="#fff"/><g clip-path="url(#a)"><path d="M606.7,352a16.9,16.9,0,1,0-16.9-16.9A16.943,16.943,0,0,0,606.7,352" fill="#fff"/></g></g></svg>