<svg xmlns="http://www.w3.org/2000/svg" xmlns:xlink="http://www.w3.org/1999/xlink" width="82.008" height="82.017" viewBox="0 0 82.008 82.017"><defs><filter id="a" x="0" y="0" width="82.008" height="82.017" filterUnits="userSpaceOnUse"><feOffset dy="3" input="SourceAlpha"/><feGaussianBlur stdDeviation="3" result="b"/><feFlood flood-opacity="0.161"/><feComposite operator="in" in2="b"/><feComposite in="SourceGraphic"/></filter></defs><g transform="translate(-3032 -8989)"><rect width="35" height="36" transform="translate(3058 9009)" fill="#1c3440"/><g transform="matrix(1, 0, 0, 1, 3032, 8989)" filter="url(#a)"><path d="M32,64a31.991,31.991,0,1,1,12.455-2.515A32.008,32.008,0,0,1,32,64ZM25.026,16.754c-1.7,0-2.764,1.363-2.764,3.556V43.69c0,2.194,1.059,3.557,2.764,3.558a4.5,4.5,0,0,0,2.214-.672l20.435-11.72A3.477,3.477,0,0,0,49.737,32a3.476,3.476,0,0,0-2.062-2.855L27.239,17.426a4.5,4.5,0,0,0-2.213-.672Z" transform="translate(8.99 6.02)" fill="#fff"/></g></g></svg>