<svg xmlns="http://www.w3.org/2000/svg" width="165.921" height="40" viewBox="0 0 165.921 40"><g transform="translate(-164.672 -235.855)"><path d="M370.258,235.855v40h10.269V259.571h11.686V251.4H380.527v-7.375h17.589v-8.172Zm0,0" transform="translate(-139.033)" fill="#1a2d3a"/><path d="M216.983,235.859l-8.68,25.816-8.567-25.816h-7.205l-8.964,25.36-8.284-25.36H164.672l14.241,40h8.341l8.567-24,8.453,24h8.284l14.3-40Zm0,0" transform="translate(0 -0.003)" fill="#1a2d3a"/><path d="M554.795,235.859l-12.452,26.679h10l6.706-15.616,12.425,28.935H581.8l-18.723-40Zm-14.655,31.4-4.011,8.6h10.5l3.691-8.6Zm0,0" transform="translate(-251.208 -0.003)" fill="#1a2d3a"/><path d="M471.559,235.855v40h10.269V259.571h11.686V251.4H481.828v-7.375h17.588v-8.172Zm0,0" transform="translate(-207.541)" fill="#1a2d3a"/><path d="M595.244,329.19a5.47,5.47,0,1,0-5.471-5.469,5.469,5.469,0,0,0,5.471,5.469" transform="translate(-287.487 -55.722)" fill="#1a2d3a"/></g></svg>