<svg xmlns="http://www.w3.org/2000/svg" xmlns:xlink="http://www.w3.org/1999/xlink" width="82" height="82" viewBox="0 0 82 82"><defs><filter id="a" x="0" y="0" width="82" height="82" filterUnits="userSpaceOnUse"><feOffset dy="3" input="SourceAlpha"/><feGaussianBlur stdDeviation="3" result="b"/><feFlood flood-opacity="0.161"/><feComposite operator="in" in2="b"/><feComposite in="SourceGraphic"/></filter></defs><g transform="matrix(1, 0, 0, 1, 0, 0)" filter="url(#a)"><path d="M32,64A32.008,32.008,0,0,1,19.544,2.515a32.008,32.008,0,0,1,24.911,58.97A31.8,31.8,0,0,1,32,64ZM25.026,16.754c-1.7,0-2.764,1.363-2.764,3.556V43.69c0,2.194,1.059,3.557,2.764,3.558a4.5,4.5,0,0,0,2.214-.672L47.675,34.856A3.477,3.477,0,0,0,49.737,32a3.476,3.476,0,0,0-2.062-2.855L27.239,17.426A4.5,4.5,0,0,0,25.026,16.754Z" transform="translate(9 6)" fill="#fff"/></g></svg>